<svg xmlns="http://www.w3.org/2000/svg" viewBox="0 0 1000 1000" width="1000" height="1000">
  <defs>
    <linearGradient id="gold" gradientUnits="userSpaceOnUse" x1="500" y1="120" x2="500" y2="700">
      <stop offset="0" stop-color="#EBD089"/><stop offset="0.55" stop-color="#CDA258"/><stop offset="1" stop-color="#AD7E37"/>
    </linearGradient>
    <radialGradient id="glow" cx="50%" cy="26%" r="55%">
      <stop offset="0" stop-color="#C2974E" stop-opacity="0.20"/><stop offset="1" stop-color="#C2974E" stop-opacity="0"/>
    </radialGradient>
  </defs>
  <rect x="0" y="0" width="1000" height="1000" fill="#0B0D10"/>
  <rect x="0" y="0" width="1000" height="1000" fill="url(#glow)"/>
  <rect x="34" y="34" width="932" height="932" rx="56" fill="none" stroke="#5c4d2c" stroke-width="2"/>
  
  <g transform="translate(291 78) scale(0.8)" fill="none" stroke="url(#gold)" stroke-width="20" stroke-linecap="round" stroke-linejoin="round">
    <path d="M150 356 V236"/><path d="M224 356 V236"/><path d="M298 356 V236"/><path d="M372 356 V236"/>
    <path d="M150 236 A37 37 0 0 1 224 236"/><path d="M224 236 A37 37 0 0 1 298 236"/><path d="M298 236 A37 37 0 0 1 372 236"/>
    <path d="M122 368 H400"/>
  </g>
  <text x="500" y="505" text-anchor="middle" font-family="'Readex Pro','Segoe UI',Tahoma,sans-serif" font-size="58" font-weight="500" fill="#CDA258" direction="rtl">رِواق</text>
  <text x="500" y="660" text-anchor="middle" font-family="'Readex Pro','Segoe UI',Tahoma,sans-serif" font-size="106" font-weight="700" fill="#FFFFFF" direction="rtl">الأساسية</text>
  <circle cx="500" cy="750" r="10" fill="url(#gold)"/>
  <text x="500" y="905" text-anchor="middle" font-family="'Segoe UI',Arial,sans-serif" font-size="30" font-weight="500" letter-spacing="18" fill="#5b6066">SUBSCRIPTION</text>
</svg>