<?xml version="1.0" encoding="utf-8"?>
<!-- Generator: Adobe Illustrator 28.1.0, SVG Export Plug-In . SVG Version: 6.00 Build 0)  -->
<svg version="1.1" id="Layer_1" xmlns="http://www.w3.org/2000/svg" xmlns:xlink="http://www.w3.org/1999/xlink" x="0px" y="0px"
	 viewBox="0 0 1000 1000" style="enable-background:new 0 0 1000 1000;" xml:space="preserve">
<style type="text/css">
	.st0{fill-rule:evenodd;clip-rule:evenodd;fill:#3C4043;}
	.st1{fill:#4285F4;}
	.st2{fill:#34A853;}
	.st3{fill:#FBBC04;}
	.st4{fill:#EA4335;}
</style>
<path class="st0" d="M480,561.2V498h32.8c13.4,0,24.8-4.5,34-13.3l2.2-2.2c16.9-18.3,15.8-46.7-2.2-63.6c-9-8.9-21.3-13.8-34-13.5
	h-52.6v155.8H480z M480,478.9v-54.4h33.3c7.1,0,13.9,2.7,19,7.7c10.7,10.4,11,27.8,0.6,38.7c-5.1,5.3-12.2,8.3-19.6,8.1H480z
	 M641.5,462.9C633,455,621.5,451,606.8,451c-18.8,0-33,7-42.4,20.8l17.5,11.1c6.4-9.4,15.2-14.2,26.2-14.2c7,0,13.8,2.6,19.1,7.3
	c5.2,4.5,8.1,10.9,8.1,17.8v4.6c-7.6-4.2-17.2-6.5-29.1-6.5c-13.8,0-24.9,3.2-33.1,9.8c-8.3,6.6-12.4,15.3-12.4,26.3
	c-0.2,10.1,4.1,19.6,11.7,26.1c7.8,7,17.6,10.4,29.2,10.4c13.7,0,24.5-6.1,32.8-18.3h0.9v14.8h19v-65.7
	C654.2,481.6,650,470.7,641.5,462.9z M587.7,541.5c-4.1-3-6.5-7.8-6.5-13c0-5.8,2.7-10.7,8-14.5c5.4-3.9,12.2-5.8,20.2-5.8
	c11.1-0.1,19.7,2.4,25.9,7.3c0,8.5-3.3,15.8-9.9,22c-5.9,6-13.9,9.3-22.3,9.3C597.6,546.9,592.1,545,587.7,541.5z M696.9,608
	l66.3-153.5h-21.6l-30.7,76.6h-0.4l-31.4-76.6h-21.6l43.5,99.8L676.4,608H696.9z"/>
<path class="st1" d="M411.6,484.4c0-6.1-0.5-12.2-1.5-18.1h-83.7v34.4h47.9c-2,11.1-8.4,21-17.7,27.2v22.4h28.6
	C401.9,534.7,411.6,511.7,411.6,484.4z"/>
<path class="st2" d="M326.4,571.8c23.9,0,44.1-8,58.8-21.6l-28.6-22.4c-8,5.5-18.2,8.6-30.2,8.6c-23.2,0-42.8-15.8-49.8-36.9h-29.4
	v23.1C262.2,552.8,292.9,571.8,326.4,571.8z"/>
<path class="st3" d="M276.7,499.5c-3.7-11.1-3.7-23.1,0-34.3v-23h-29.5c-12.7,25.2-12.7,55.1,0,80.3L276.7,499.5z"/>
<path class="st4" d="M326.4,428.3c12.7-0.2,24.9,4.6,34,13.4l25.4-25.6c-16.1-15.2-37.3-23.5-59.4-23.2c-33.5,0-64.2,19.1-79.2,49.3
	l29.4,23.1C283.7,444.1,303.3,428.3,326.4,428.3z"/>
</svg>
