<?xml version="1.0" encoding="UTF-8"?>
<svg id="Layer_1" data-name="Layer 1" xmlns="http://www.w3.org/2000/svg" viewBox="0 0 1000 1000">
  <path d="m494.47,472.24c-8.64-3.24-17-4.82-27.52-2.59-8.22,1.73-14.82,5.04-19.15,13.28,1.91,1.55,3.62,3.02,5.29,4.48,2.75,2.39,5.61,4.85,9.43,7.71,3.02-4.31,8.31-9.17,13.97-9.28,6.57-.13,12.87,3.49,13.91,8.79.42,2.2.71,11.28.71,11.28l-3.45.74c-.68.25-1.43.25-2.12,0l-.54-.21-.44-.17c-7.08-2.74-14.59-4.2-22.18-4.31-2.55,0-5.1.2-7.62.59-7.74,1.22-16.95,5.59-16.79,19.55.06,5.31,1.17,9.29,3.51,12.53,2.06,2.95,4.81,5.35,8.02,6.99s6.76,2.46,10.36,2.39c8.79.27,17.38-2.72,24.1-8.38.14-.11,1.74-1.51,2.21-1.87l4.75-3.68v13.84h19.81v-48.37c.01-10.95-5.96-19.42-16.25-23.29Zm-6.12,45.46c-4.23,7.58-11.14,11.86-19.08,11.86h-1.01c-1.67-.03-3.33-.25-4.96-.63-5.94-1.56-9.32-6.34-9.07-12.77l.12-2.81h36.42l-2.42,4.35Z"/>
  <path d="m701.4,472.24c-8.64-3.24-17-4.82-27.51-2.59-8.23,1.73-14.83,5.04-19.15,13.28,1.91,1.55,3.62,3.02,5.29,4.48,2.76,2.39,5.61,4.85,9.43,7.71,3.02-4.31,8.32-9.17,13.97-9.28,6.58-.13,12.87,3.49,13.91,8.79.42,2.2.71,11.28.71,11.28l-3.44.74c-.68.25-1.43.25-2.12,0-.17-.06-.36-.13-.54-.21l-.45-.17c-7.08-2.74-14.59-4.2-22.18-4.31-2.55,0-5.1.2-7.62.59-7.74,1.22-16.95,5.59-16.79,19.55.06,5.31,1.18,9.29,3.51,12.53,2.06,2.95,4.81,5.35,8.02,6.99,3.2,1.64,6.76,2.46,10.36,2.39,8.8.27,17.38-2.72,24.11-8.38.13-.11,1.74-1.51,2.2-1.87l4.75-3.68v13.84h19.81v-48.37c0-10.95-5.97-19.42-16.26-23.29Zm-6.12,45.46c-4.22,7.58-11.14,11.86-19.07,11.86h-1.01c-1.67-.03-3.33-.25-4.95-.63-5.95-1.56-9.33-6.34-9.07-12.77l.12-2.81h36.41l-2.43,4.35Z"/>
  <path d="m836.75,472.24c-8.64-3.24-17-4.82-27.52-2.59-8.22,1.73-14.82,5.04-19.15,13.28,1.91,1.55,3.62,3.02,5.29,4.48,2.75,2.39,5.61,4.85,9.43,7.71,3.02-4.31,8.31-9.17,13.97-9.28,6.58-.13,12.87,3.49,13.91,8.79.42,2.2.71,11.28.71,11.28l-3.45.74c-.68.25-1.43.25-2.11,0-.17-.06-.36-.13-.54-.21l-.45-.17c-7.08-2.74-14.59-4.2-22.18-4.31-2.55,0-5.1.2-7.62.59-7.74,1.22-16.95,5.59-16.79,19.55.06,5.31,1.17,9.29,3.51,12.53,2.06,2.95,4.81,5.35,8.02,6.99,3.2,1.64,6.76,2.46,10.36,2.39,8.8.27,17.38-2.72,24.11-8.38.13-.11,1.74-1.51,2.2-1.87l4.75-3.68v13.84h19.81v-48.37c.01-10.95-5.96-19.42-16.25-23.29Zm-6.12,45.46c-4.23,7.58-11.14,11.86-19.08,11.86h-1.01c-1.67-.03-3.33-.25-4.96-.63-5.94-1.56-9.32-6.34-9.07-12.77l.12-2.81h36.4l-2.4,4.35Z"/>
  <path d="m771.93,474.83c-6.41.29-10.98,3.09-14,8.61-.33.6-2.47,4.8-2.47,4.8l-4.75-1.1v-11.33h-19.15v68.24h19.21v-26.65c0-2.27-.15-4.61,0-6.96.28-4.11,1.98-7.99,4.82-10.98,2.84-2.99,6.62-4.89,10.71-5.39,2.68-.38,9.43-.41,10.16-.42v-18.85c-1.6-.02-3.07-.03-4.53.04Z"/>
  <path d="m423.14,528.11c-1.69-.03-3.37-.16-5.04-.4-5.04-.83-8.26-3.31-9.63-7.39-.62-1.71-.96-3.5-1.01-5.31v-30.47l2.97-.13c6.36-.31,13.11-.78,19.51-2.55l-4.08-13.92-18.4,2.73v-20.49h-21.73v20.49h-14.68v14.05h14.68s0,28.97.12,36.37c.01,4.52,1.32,8.94,3.76,12.74,2.92,4.44,7.17,7.22,13.38,8.76,6.68,1.64,13.46,1.56,20.62,1.48h1.71v-15.87h-.83l-1.36-.08Z"/>
  <path d="m589.49,505.61c0-6.89,4.64-12.33,10.94-12.92,7.6-.72,12.94,3.08,14.31,10.15.2,1.24.29,2.5.25,3.76v37.36h19.15v-46.15c.02-2.22-.16-4.44-.54-6.63-1.59-8.46-6.13-13.62-13.78-15.8-8.29-2.32-22.18-.58-28.63,10.69l-2.94,5.88c-1.69-8.44-6.52-14.56-14.22-16.77-8.29-2.32-20.79-.37-27.22,10.9l-2.88,5.04v-15.33h-20.04v68.25h19.96v-37.02c0-1.28.08-2.55.24-3.82.23-2.39,1.2-4.65,2.77-6.47,1.57-1.82,3.67-3.11,6-3.68,5.46-1.41,11.14.34,14.11,4.38,1.76,2.61,2.62,5.72,2.45,8.87v37.7h20.08v-38.39Z"/>
  <path d="m156.16,476.72c-3.98,4.15-7.09,9.04-9.16,14.4l63.51,52.64c3.13-1.92,5.99-4.22,8.54-6.86l1.24-1.29c24.06-25.11,8.26-52.32-1.33-61.47-8.33-7.97-19.49-12.31-31.02-12.06-11.53.25-22.49,5.06-30.47,13.38l-1.3,1.26Z"/>
  <path d="m287.19,549.81c24.29,0,43.97-19.68,43.97-43.95s-19.69-43.96-43.97-43.96-43.98,19.68-43.98,43.96,19.69,43.95,43.98,43.95Z"/>
</svg>